<svg width="248" height="63" class="fill-current" fill="none" xmlns="http://www.w3.org/2000/svg"><path d="M92.836 36.7H79.444L76.672 43h-3.708l11.412-25.2h3.564L99.388 43h-3.78l-2.772-6.3zm-1.26-2.88L86.14 21.472 80.704 33.82h10.872zm18.127 9.396c-1.944 0-3.684-.42-5.22-1.26a9.306 9.306 0 01-3.564-3.456c-.864-1.488-1.296-3.168-1.296-5.04 0-1.872.432-3.54 1.296-5.004A8.975 8.975 0 01104.483 25c1.536-.84 3.276-1.26 5.22-1.26 1.728 0 3.264.348 4.608 1.044a7.412 7.412 0 013.168 3.024l-2.628 1.692c-.6-.912-1.344-1.596-2.232-2.052-.888-.456-1.872-.684-2.952-.684-1.248 0-2.376.276-3.384.828-.984.552-1.764 1.344-2.34 2.376-.552 1.008-.828 2.172-.828 3.492 0 1.344.276 2.532.828 3.564a6.09 6.09 0 002.34 2.34c1.008.552 2.136.828 3.384.828 1.08 0 2.064-.228 2.952-.684.888-.456 1.632-1.14 2.232-2.052l2.628 1.656c-.744 1.32-1.8 2.34-3.168 3.06-1.344.696-2.88 1.044-4.608 1.044zm19.206 0c-1.944 0-3.684-.42-5.22-1.26a9.306 9.306 0 01-3.564-3.456c-.864-1.488-1.296-3.168-1.296-5.04 0-1.872.432-3.54 1.296-5.004A8.975 8.975 0 01123.689 25c1.536-.84 3.276-1.26 5.22-1.26 1.728 0 3.264.348 4.608 1.044a7.412 7.412 0 013.168 3.024l-2.628 1.692c-.6-.912-1.344-1.596-2.232-2.052-.888-.456-1.872-.684-2.952-.684-1.248 0-2.376.276-3.384.828-.984.552-1.764 1.344-2.34 2.376-.552 1.008-.828 2.172-.828 3.492 0 1.344.276 2.532.828 3.564a6.09 6.09 0 002.34 2.34c1.008.552 2.136.828 3.384.828 1.08 0 2.064-.228 2.952-.684.888-.456 1.632-1.14 2.232-2.052l2.628 1.656c-.744 1.32-1.8 2.34-3.168 3.06-1.344.696-2.88 1.044-4.608 1.044zm19.061 0c-1.896 0-3.6-.42-5.112-1.26a9.306 9.306 0 01-3.564-3.456c-.84-1.488-1.26-3.168-1.26-5.04 0-1.872.42-3.54 1.26-5.004A8.975 8.975 0 01142.858 25c1.512-.84 3.216-1.26 5.112-1.26s3.588.42 5.076 1.26a8.734 8.734 0 013.528 3.456c.864 1.464 1.296 3.132 1.296 5.004 0 1.872-.432 3.552-1.296 5.04-.84 1.464-2.016 2.616-3.528 3.456-1.488.84-3.18 1.26-5.076 1.26zm0-3.024c1.224 0 2.316-.276 3.276-.828a6.092 6.092 0 002.304-2.376c.552-1.032.828-2.208.828-3.528 0-1.32-.276-2.484-.828-3.492-.552-1.032-1.32-1.824-2.304-2.376-.96-.552-2.052-.828-3.276-.828-1.224 0-2.328.276-3.312.828-.96.552-1.728 1.344-2.304 2.376-.552 1.008-.828 2.172-.828 3.492 0 1.32.276 2.496.828 3.528a6.442 6.442 0 002.304 2.376c.984.552 2.088.828 3.312.828zm31.383-16.272V43h-3.276v-2.88c-.696.984-1.62 1.752-2.772 2.304-1.128.528-2.364.792-3.708.792-2.544 0-4.548-.696-6.012-2.088-1.464-1.416-2.196-3.492-2.196-6.228V23.92h3.456v10.584c0 1.848.444 3.252 1.332 4.212.888.936 2.16 1.404 3.816 1.404 1.824 0 3.264-.552 4.32-1.656 1.056-1.104 1.584-2.664 1.584-4.68V23.92h3.456zm15.688-.18c2.424 0 4.344.708 5.76 2.124 1.44 1.392 2.16 3.444 2.16 6.156V43h-3.456V32.416c0-1.848-.444-3.24-1.332-4.176-.888-.936-2.16-1.404-3.816-1.404-1.872 0-3.348.552-4.428 1.656-1.08 1.08-1.62 2.64-1.62 4.68V43h-3.456V23.92h3.312v2.88c.696-.984 1.632-1.74 2.808-2.268 1.2-.528 2.556-.792 4.068-.792zm23.964 18.144c-.504.432-1.128.768-1.872 1.008a8.222 8.222 0 01-2.304.324c-1.92 0-3.408-.516-4.464-1.548-1.056-1.032-1.584-2.508-1.584-4.428V26.764h-3.24V23.92h3.24v-4.176h3.456v4.176h5.472v2.844h-5.472v10.332c0 1.032.252 1.824.756 2.376.528.552 1.272.828 2.232.828 1.056 0 1.956-.3 2.7-.9l1.08 2.484zm3.098-25.596h3.456V43h-3.456V16.288zm25.858 7.632l-9.252 20.988c-.816 1.944-1.776 3.312-2.88 4.104-1.08.792-2.388 1.188-3.924 1.188a8.196 8.196 0 01-2.736-.468c-.864-.288-1.584-.72-2.16-1.296l1.476-2.592c.984.936 2.124 1.404 3.42 1.404.84 0 1.536-.228 2.088-.684.576-.432 1.092-1.188 1.548-2.268l.612-1.332-8.424-19.044h3.6l6.66 15.264 6.588-15.264h3.384z" fill="#2D3748"/><path d="M50.89 40.252v2.49a3.282 3.282 0 01-1.406 2.691l-9.868-9.868 2.736-2.735a.791.791 0 011.114 0l7.423 7.422z" fill="#4299E1"/><path d="M42.91 29.6a2.496 2.496 0 00-1.78.737l-3.37 3.37-6.92-6.919a3.828 3.828 0 00-5.408 0l-9.62 9.62-2.973-2.973a2.52 2.52 0 00-3.56 0l-3.895 3.898V20.26a3.281 3.281 0 011.642-2.844l19.468-11.24a3.285 3.285 0 013.285 0l19.469 11.24a3.285 3.285 0 011.642 2.844v16.276l-6.199-6.2a2.494 2.494 0 00-1.781-.736z" fill="#4299E1"/><path d="M13.955 38.267L6.79 45.433a3.282 3.282 0 01-1.405-2.692v-1.693l5.119-5.119a.788.788 0 011.114 0l2.337 2.338zM15.813 40.124l1.857-1.857 9.62-9.62a1.197 1.197 0 011.692 0l6.919 6.92 1.858 1.857 9.38 9.378-17.36 10.023a3.286 3.286 0 01-3.284 0L9.136 46.802l6.677-6.678z" fill="#4299E1"/><path d="M28.136 2.716c-.644 0-1.276.17-1.834.491L4.552 15.765a3.667 3.667 0 00-1.835 3.178v25.115a3.67 3.67 0 001.835 3.177l21.75 12.557a3.67 3.67 0 003.669 0l21.75-12.557a3.668 3.668 0 001.835-3.177V18.943a3.669 3.669 0 00-1.835-3.178L29.971 3.207a3.668 3.668 0 00-1.835-.49zm0-2.716c1.121 0 2.222.295 3.193.855l21.75 12.558a6.402 6.402 0 013.193 5.53v25.115a6.403 6.403 0 01-3.193 5.53l-21.75 12.557a6.385 6.385 0 01-6.385 0L3.194 49.587A6.403 6.403 0 010 44.057V18.944a6.402 6.402 0 013.192-5.53L24.942.855A6.394 6.394 0 0128.136 0h.001z" fill="#4299E1"/></svg>
