<svg width="248" height="63" viewBox="0 0 248 63" fill="none" xmlns="http://www.w3.org/2000/svg">
<path d="M92.836 36.7H79.444L76.672 43H72.964L84.376 17.8H87.94L99.388 43H95.608L92.836 36.7ZM91.576 33.82L86.14 21.472L80.704 33.82H91.576ZM109.703 43.216C107.759 43.216 106.019 42.796 104.483 41.956C102.971 41.116 101.783 39.964 100.919 38.5C100.055 37.012 99.6234 35.332 99.6234 33.46C99.6234 31.588 100.055 29.92 100.919 28.456C101.783 26.968 102.971 25.816 104.483 25C106.019 24.16 107.759 23.74 109.703 23.74C111.431 23.74 112.967 24.088 114.311 24.784C115.679 25.48 116.735 26.488 117.479 27.808L114.851 29.5C114.251 28.588 113.507 27.904 112.619 27.448C111.731 26.992 110.747 26.764 109.667 26.764C108.419 26.764 107.291 27.04 106.283 27.592C105.299 28.144 104.519 28.936 103.943 29.968C103.391 30.976 103.115 32.14 103.115 33.46C103.115 34.804 103.391 35.992 103.943 37.024C104.519 38.032 105.299 38.812 106.283 39.364C107.291 39.916 108.419 40.192 109.667 40.192C110.747 40.192 111.731 39.964 112.619 39.508C113.507 39.052 114.251 38.368 114.851 37.456L117.479 39.112C116.735 40.432 115.679 41.452 114.311 42.172C112.967 42.868 111.431 43.216 109.703 43.216ZM128.909 43.216C126.965 43.216 125.225 42.796 123.689 41.956C122.177 41.116 120.989 39.964 120.125 38.5C119.261 37.012 118.829 35.332 118.829 33.46C118.829 31.588 119.261 29.92 120.125 28.456C120.989 26.968 122.177 25.816 123.689 25C125.225 24.16 126.965 23.74 128.909 23.74C130.637 23.74 132.173 24.088 133.517 24.784C134.885 25.48 135.941 26.488 136.685 27.808L134.057 29.5C133.457 28.588 132.713 27.904 131.825 27.448C130.937 26.992 129.953 26.764 128.873 26.764C127.625 26.764 126.497 27.04 125.489 27.592C124.505 28.144 123.725 28.936 123.149 29.968C122.597 30.976 122.321 32.14 122.321 33.46C122.321 34.804 122.597 35.992 123.149 37.024C123.725 38.032 124.505 38.812 125.489 39.364C126.497 39.916 127.625 40.192 128.873 40.192C129.953 40.192 130.937 39.964 131.825 39.508C132.713 39.052 133.457 38.368 134.057 37.456L136.685 39.112C135.941 40.432 134.885 41.452 133.517 42.172C132.173 42.868 130.637 43.216 128.909 43.216ZM147.97 43.216C146.074 43.216 144.37 42.796 142.858 41.956C141.346 41.116 140.158 39.964 139.294 38.5C138.454 37.012 138.034 35.332 138.034 33.46C138.034 31.588 138.454 29.92 139.294 28.456C140.158 26.968 141.346 25.816 142.858 25C144.37 24.16 146.074 23.74 147.97 23.74C149.866 23.74 151.558 24.16 153.046 25C154.558 25.816 155.734 26.968 156.574 28.456C157.438 29.92 157.87 31.588 157.87 33.46C157.87 35.332 157.438 37.012 156.574 38.5C155.734 39.964 154.558 41.116 153.046 41.956C151.558 42.796 149.866 43.216 147.97 43.216ZM147.97 40.192C149.194 40.192 150.286 39.916 151.246 39.364C152.23 38.788 152.998 37.996 153.55 36.988C154.102 35.956 154.378 34.78 154.378 33.46C154.378 32.14 154.102 30.976 153.55 29.968C152.998 28.936 152.23 28.144 151.246 27.592C150.286 27.04 149.194 26.764 147.97 26.764C146.746 26.764 145.642 27.04 144.658 27.592C143.698 28.144 142.93 28.936 142.354 29.968C141.802 30.976 141.526 32.14 141.526 33.46C141.526 34.78 141.802 35.956 142.354 36.988C142.93 37.996 143.698 38.788 144.658 39.364C145.642 39.916 146.746 40.192 147.97 40.192ZM179.353 23.92V43H176.077V40.12C175.381 41.104 174.457 41.872 173.305 42.424C172.177 42.952 170.941 43.216 169.597 43.216C167.053 43.216 165.049 42.52 163.585 41.128C162.121 39.712 161.389 37.636 161.389 34.9V23.92H164.845V34.504C164.845 36.352 165.289 37.756 166.177 38.716C167.065 39.652 168.337 40.12 169.993 40.12C171.817 40.12 173.257 39.568 174.313 38.464C175.369 37.36 175.897 35.8 175.897 33.784V23.92H179.353ZM195.041 23.74C197.465 23.74 199.385 24.448 200.801 25.864C202.241 27.256 202.961 29.308 202.961 32.02V43H199.505V32.416C199.505 30.568 199.061 29.176 198.173 28.24C197.285 27.304 196.013 26.836 194.357 26.836C192.485 26.836 191.009 27.388 189.929 28.492C188.849 29.572 188.309 31.132 188.309 33.172V43H184.853V23.92H188.165V26.8C188.861 25.816 189.797 25.06 190.973 24.532C192.173 24.004 193.529 23.74 195.041 23.74ZM219.005 41.884C218.501 42.316 217.877 42.652 217.133 42.892C216.389 43.108 215.621 43.216 214.829 43.216C212.909 43.216 211.421 42.7 210.365 41.668C209.309 40.636 208.781 39.16 208.781 37.24V26.764H205.541V23.92H208.781V19.744H212.237V23.92H217.709V26.764H212.237V37.096C212.237 38.128 212.489 38.92 212.993 39.472C213.521 40.024 214.265 40.3 215.225 40.3C216.281 40.3 217.181 40 217.925 39.4L219.005 41.884ZM222.103 16.288H225.559V43H222.103V16.288ZM247.961 23.92L238.709 44.908C237.893 46.852 236.933 48.22 235.829 49.012C234.749 49.804 233.441 50.2 231.905 50.2C230.969 50.2 230.057 50.044 229.169 49.732C228.305 49.444 227.585 49.012 227.009 48.436L228.485 45.844C229.469 46.78 230.609 47.248 231.905 47.248C232.745 47.248 233.441 47.02 233.993 46.564C234.569 46.132 235.085 45.376 235.541 44.296L236.153 42.964L227.729 23.92H231.329L237.989 39.184L244.577 23.92H247.961Z" fill="white"/>
<path d="M50.8893 40.2519V42.7415C50.8891 43.2702 50.7611 43.791 50.5164 44.2596C50.2717 44.7286 49.9173 45.1309 49.4836 45.4334L39.6159 35.5654L42.3516 32.8296C42.4248 32.7566 42.5117 32.6985 42.6073 32.6589C42.7029 32.6192 42.8054 32.5988 42.9089 32.5988C43.0124 32.5988 43.1149 32.6192 43.2105 32.6589C43.3061 32.6985 43.393 32.7566 43.4662 32.8296L50.8893 40.2519Z" fill="#4299E1"/>
<path d="M42.9098 29.5995C42.579 29.5986 42.2513 29.6632 41.9457 29.7901C41.6401 29.9166 41.3626 30.1027 41.1294 30.3371L37.7597 33.7069L30.8409 26.7881C30.1233 26.0717 29.1507 25.6693 28.1366 25.6693C27.1226 25.6693 26.1499 26.0717 25.4323 26.7881L15.8121 36.4084L12.8388 33.4351C12.3662 32.9636 11.7262 32.6988 11.0585 32.6988C10.391 32.6988 9.75078 32.9636 9.27845 33.4351L5.38369 37.3329V20.2599C5.38369 19.6834 5.53548 19.117 5.82403 18.6178C6.1123 18.1185 6.52686 17.704 7.0261 17.4157L26.4945 6.17543C26.9937 5.88713 27.5604 5.73535 28.1369 5.73535C28.7135 5.73535 29.2799 5.88713 29.7793 6.17543L49.248 17.4157C49.7473 17.704 50.1619 18.1185 50.4502 18.6178C50.7385 19.117 50.8903 19.6834 50.8904 20.2599V36.5361L44.6912 30.3369C44.4578 30.1021 44.1802 29.9161 43.8744 29.7898C43.5686 29.6632 43.2407 29.5984 42.9098 29.5995Z" fill="#4299E1"/>
<path d="M13.9548 38.2674L6.7905 45.4331C6.35668 45.1306 6.00243 44.728 5.75777 44.2593C5.51311 43.7907 5.3854 43.2699 5.38511 42.7412V41.0479L10.5035 35.9295C10.6513 35.7817 10.8518 35.6987 11.0607 35.6987C11.27 35.6987 11.4705 35.7817 11.6183 35.9295L13.9548 38.2674Z" fill="#4299E1"/>
<path d="M15.8127 40.1244L17.67 38.2674L27.2902 28.6475C27.5148 28.4232 27.8189 28.2974 28.1362 28.2974C28.4534 28.2974 28.7577 28.4232 28.9822 28.6475L35.9009 35.5662L37.7586 37.4238L47.1381 46.8022L29.7796 56.8248C29.2803 57.1131 28.7138 57.2649 28.1372 57.2649C27.5607 57.2649 26.994 57.1131 26.4948 56.8248L9.1363 46.8022L15.8127 40.1244Z" fill="#4299E1"/>
<path d="M28.1363 2.71619C27.4924 2.71602 26.8595 2.88547 26.3019 3.2075L4.55173 15.7651C3.99387 16.0871 3.53089 16.5503 3.20892 17.1081C2.88696 17.6658 2.71733 18.2985 2.71733 18.9426V44.0577C2.71733 44.7017 2.88696 45.3343 3.20892 45.8921C3.53089 46.4497 3.99387 46.913 4.55173 47.2349L26.3019 59.7925C26.8598 60.1145 27.4924 60.2841 28.1365 60.2841C28.7805 60.2841 29.4133 60.1145 29.971 59.7925L51.7212 47.2349C52.279 46.913 52.7421 46.4497 53.0641 45.8921C53.3861 45.3343 53.5556 44.7017 53.5556 44.0577V18.9426C53.5556 18.2985 53.3861 17.6658 53.0641 17.1081C52.7421 16.5503 52.279 16.0871 51.7212 15.7651L29.971 3.2075C29.4132 2.8855 28.7804 2.71605 28.1363 2.71619ZM28.1363 0C29.2571 0.000437686 30.358 0.295448 31.3288 0.855465L53.0793 13.413C54.0488 13.9748 54.8538 14.7811 55.414 15.7514C55.9743 16.7218 56.27 17.8221 56.2718 18.9426V44.0577C56.27 45.1782 55.9741 46.2786 55.4139 47.2488C54.8536 48.2192 54.0485 49.0254 53.079 49.5872L31.3288 62.1448C30.3581 62.7052 29.2571 63 28.1363 63C27.0155 63 25.9146 62.7052 24.9438 62.1448L3.19363 49.5872C2.22405 49.0257 1.4187 48.2192 0.858303 47.2491C0.297904 46.2786 0.00199103 45.1782 8.81958e-06 44.0577V18.9426C0.00170786 17.8221 0.297621 16.7218 0.857737 15.7515C1.41814 14.7811 2.22319 13.9748 3.1925 13.413L24.9427 0.855465C25.9134 0.295485 27.0144 0.000477517 28.1352 0H28.1363Z" fill="#4299E1"/>
</svg>
