<svg width="161" height="181"  class="fill-current" fill="none" xmlns="http://www.w3.org/2000/svg"><path d="M145.6 115.165v7.123a9.4 9.4 0 01-4.022 7.702l-28.233-28.233 7.828-7.828a2.263 2.263 0 011.594-.66 2.252 2.252 0 011.595.66l21.238 21.236z" fill="#4299E1"/><path d="M122.77 84.688a7.147 7.147 0 00-5.094 2.11l-9.641 9.641-19.796-19.795a10.951 10.951 0 00-15.474 0L45.24 104.168l-8.507-8.507a7.21 7.21 0 00-10.186 0l-11.144 11.153V57.966a9.396 9.396 0 014.7-8.138l55.7-32.16a9.398 9.398 0 019.399 0l55.702 32.16a9.396 9.396 0 014.699 8.138v46.568l-17.737-17.737a7.155 7.155 0 00-5.096-2.11z" fill="#4299E1"/><path d="M39.926 109.487l-20.498 20.502a9.387 9.387 0 01-4.02-7.701v-4.845l14.644-14.645a2.258 2.258 0 013.19 0l6.684 6.689zM45.242 114.801l5.314-5.314L78.08 81.964a3.424 3.424 0 014.841 0l19.796 19.795 5.314 5.315 26.836 26.832-49.664 28.676a9.397 9.397 0 01-9.398 0L26.14 133.906l19.102-19.105z" fill="#4299E1"/><path d="M80.501 7.771a10.49 10.49 0 00-5.248 1.406l-62.23 35.929a10.493 10.493 0 00-5.248 9.09v71.858a10.493 10.493 0 005.248 9.09l62.23 35.929a10.502 10.502 0 0010.497 0l62.23-35.929a10.493 10.493 0 005.249-9.09V54.197a10.493 10.493 0 00-5.249-9.091L85.75 9.177a10.495 10.495 0 00-5.249-1.406zm0-7.771c3.207.001 6.357.845 9.134 2.448l62.231 35.928A18.318 18.318 0 01161 54.196v71.858a18.315 18.315 0 01-9.135 15.821l-62.23 35.928a18.262 18.262 0 01-18.268 0l-62.23-35.928A18.322 18.322 0 010 126.054V54.197a18.319 18.319 0 019.134-15.82l62.23-35.93A18.295 18.295 0 0180.498 0h.003z"/></svg>
